<mxfile host="app.diagrams.net" modified="2022-03-07T15:45:40.183Z" agent="5.0 (Windows)" etag="nb-X5mW3CcP3ML9A9jux" version="16.6.7" type="github">
  <diagram id="y5uNfYxEgai9vvKYRE7q" name="Page-1">
    <mxGraphModel dx="3197" dy="792" grid="1" gridSize="10" guides="1" tooltips="1" connect="1" arrows="1" fold="1" page="1" pageScale="1" pageWidth="850" pageHeight="1100" math="0" shadow="0">
      <root>
        <mxCell id="0" />
        <mxCell id="1" parent="0" />
        <mxCell id="go6vWqejy8pKC4_B8dgW-104" value="" style="group" parent="1" vertex="1" connectable="0">
          <mxGeometry x="-1050" y="10" width="680" height="850" as="geometry" />
        </mxCell>
        <mxCell id="go6vWqejy8pKC4_B8dgW-106" value="&lt;h1&gt;Internal Schema&lt;/h1&gt;&lt;div&gt;This is what the non-programmers want, translated to individual variables/concepts. Along with a description&lt;/div&gt;&lt;p&gt;&lt;/p&gt;" style="text;html=1;strokeColor=none;fillColor=none;spacing=5;spacingTop=-20;whiteSpace=wrap;overflow=hidden;rounded=0;" parent="go6vWqejy8pKC4_B8dgW-104" vertex="1">
          <mxGeometry x="27.199999999999996" y="18.88888888888889" width="625.5999999999999" height="207.77777777777786" as="geometry" />
        </mxCell>
        <mxCell id="X6cNBren62eQBll-vNDI-18" value="" style="shape=partialRectangle;html=1;whiteSpace=wrap;connectable=0;fillColor=none;top=0;left=0;bottom=0;right=0;overflow=hidden;" parent="go6vWqejy8pKC4_B8dgW-104" vertex="1">
          <mxGeometry x="16.585365853658537" y="628.7671232876712" width="215.60975609756096" height="40.75342465753425" as="geometry" />
        </mxCell>
        <mxCell id="go6vWqejy8pKC4_B8dgW-105" value="" style="rounded=0;whiteSpace=wrap;html=1;" parent="go6vWqejy8pKC4_B8dgW-104" vertex="1">
          <mxGeometry x="-16.585365853658537" width="696.5853658536585" height="850" as="geometry" />
        </mxCell>
        <mxCell id="go6vWqejy8pKC4_B8dgW-109" value="" style="shape=table;html=1;whiteSpace=wrap;startSize=0;container=1;collapsible=0;childLayout=tableLayout;" parent="go6vWqejy8pKC4_B8dgW-104" vertex="1">
          <mxGeometry x="16.585365853658537" y="140" width="645.170731707317" height="723.48" as="geometry" />
        </mxCell>
        <mxCell id="go6vWqejy8pKC4_B8dgW-110" value="" style="shape=partialRectangle;html=1;whiteSpace=wrap;collapsible=0;dropTarget=0;pointerEvents=0;fillColor=none;top=0;left=0;bottom=0;right=0;points=[[0,0.5],[1,0.5]];portConstraint=eastwest;" parent="go6vWqejy8pKC4_B8dgW-109" vertex="1">
          <mxGeometry width="645.170731707317" height="36" as="geometry" />
        </mxCell>
        <mxCell id="go6vWqejy8pKC4_B8dgW-111" value="Task Name" style="shape=partialRectangle;html=1;whiteSpace=wrap;connectable=0;fillColor=none;top=0;left=0;bottom=0;right=0;overflow=hidden;" parent="go6vWqejy8pKC4_B8dgW-110" vertex="1">
          <mxGeometry width="273" height="36" as="geometry">
            <mxRectangle width="273" height="36" as="alternateBounds" />
          </mxGeometry>
        </mxCell>
        <mxCell id="go6vWqejy8pKC4_B8dgW-112" value="&lt;b&gt;Description&lt;/b&gt;" style="shape=partialRectangle;html=1;whiteSpace=wrap;connectable=0;fillColor=none;top=0;left=0;bottom=0;right=0;overflow=hidden;" parent="go6vWqejy8pKC4_B8dgW-110" vertex="1">
          <mxGeometry x="273" width="372" height="36" as="geometry">
            <mxRectangle width="372" height="36" as="alternateBounds" />
          </mxGeometry>
        </mxCell>
        <mxCell id="go6vWqejy8pKC4_B8dgW-118" value="" style="shape=partialRectangle;html=1;whiteSpace=wrap;collapsible=0;dropTarget=0;pointerEvents=0;fillColor=none;top=0;left=0;bottom=0;right=0;points=[[0,0.5],[1,0.5]];portConstraint=eastwest;" parent="go6vWqejy8pKC4_B8dgW-109" vertex="1">
          <mxGeometry y="36" width="645.170731707317" height="54" as="geometry" />
        </mxCell>
        <mxCell id="go6vWqejy8pKC4_B8dgW-119" value="The harpoon&#39;s pull speed is being capped by the movement speed cap in the old drone movement" style="shape=partialRectangle;html=1;whiteSpace=wrap;connectable=0;fillColor=none;top=0;left=0;bottom=0;right=0;overflow=hidden;" parent="go6vWqejy8pKC4_B8dgW-118" vertex="1">
          <mxGeometry width="273" height="54" as="geometry">
            <mxRectangle width="273" height="54" as="alternateBounds" />
          </mxGeometry>
        </mxCell>
        <mxCell id="go6vWqejy8pKC4_B8dgW-120" value="" style="shape=partialRectangle;html=1;whiteSpace=wrap;connectable=0;fillColor=none;top=0;left=0;bottom=0;right=0;overflow=hidden;" parent="go6vWqejy8pKC4_B8dgW-118" vertex="1">
          <mxGeometry x="273" width="372" height="54" as="geometry">
            <mxRectangle width="372" height="54" as="alternateBounds" />
          </mxGeometry>
        </mxCell>
        <mxCell id="go6vWqejy8pKC4_B8dgW-114" value="" style="shape=partialRectangle;html=1;whiteSpace=wrap;collapsible=0;dropTarget=0;pointerEvents=0;fillColor=none;top=0;left=0;bottom=0;right=0;points=[[0,0.5],[1,0.5]];portConstraint=eastwest;" parent="go6vWqejy8pKC4_B8dgW-109" vertex="1">
          <mxGeometry y="90" width="645.170731707317" height="50" as="geometry" />
        </mxCell>
        <mxCell id="go6vWqejy8pKC4_B8dgW-115" value="&lt;span style=&quot;text-align: center&quot;&gt;introduce lerp and ease in/out most of the UI,&amp;nbsp;&lt;/span&gt;&lt;span style=&quot;text-align: center&quot;&gt;also get a warning when about to stall&lt;br&gt;&lt;/span&gt;" style="shape=partialRectangle;html=1;whiteSpace=wrap;connectable=0;fillColor=none;top=0;left=0;bottom=0;right=0;overflow=hidden;" parent="go6vWqejy8pKC4_B8dgW-114" vertex="1">
          <mxGeometry width="273" height="50" as="geometry">
            <mxRectangle width="273" height="50" as="alternateBounds" />
          </mxGeometry>
        </mxCell>
        <mxCell id="go6vWqejy8pKC4_B8dgW-116" value="" style="shape=partialRectangle;html=1;whiteSpace=wrap;connectable=0;fillColor=none;top=0;left=0;bottom=0;right=0;overflow=hidden;" parent="go6vWqejy8pKC4_B8dgW-114" vertex="1">
          <mxGeometry x="273" width="372" height="50" as="geometry">
            <mxRectangle width="372" height="50" as="alternateBounds" />
          </mxGeometry>
        </mxCell>
        <mxCell id="go6vWqejy8pKC4_B8dgW-155" style="shape=partialRectangle;html=1;whiteSpace=wrap;collapsible=0;dropTarget=0;pointerEvents=0;fillColor=none;top=0;left=0;bottom=0;right=0;points=[[0,0.5],[1,0.5]];portConstraint=eastwest;" parent="go6vWqejy8pKC4_B8dgW-109" vertex="1">
          <mxGeometry y="140" width="645.170731707317" height="60" as="geometry" />
        </mxCell>
        <mxCell id="go6vWqejy8pKC4_B8dgW-156" value="&lt;span style=&quot;text-align: center&quot;&gt;add the ability for the aura radiator has the ability to send the tag and how strong that tag is.&lt;/span&gt;" style="shape=partialRectangle;html=1;whiteSpace=wrap;connectable=0;fillColor=none;top=0;left=0;bottom=0;right=0;overflow=hidden;" parent="go6vWqejy8pKC4_B8dgW-155" vertex="1">
          <mxGeometry width="273" height="60" as="geometry">
            <mxRectangle width="273" height="60" as="alternateBounds" />
          </mxGeometry>
        </mxCell>
        <mxCell id="go6vWqejy8pKC4_B8dgW-157" value="" style="shape=partialRectangle;html=1;whiteSpace=wrap;connectable=0;fillColor=none;top=0;left=0;bottom=0;right=0;overflow=hidden;" parent="go6vWqejy8pKC4_B8dgW-155" vertex="1">
          <mxGeometry x="273" width="372" height="60" as="geometry">
            <mxRectangle width="372" height="60" as="alternateBounds" />
          </mxGeometry>
        </mxCell>
        <mxCell id="Bw-sxPb2Esf4PSg_OQSB-51" style="shape=partialRectangle;html=1;whiteSpace=wrap;collapsible=0;dropTarget=0;pointerEvents=0;fillColor=none;top=0;left=0;bottom=0;right=0;points=[[0,0.5],[1,0.5]];portConstraint=eastwest;" vertex="1" parent="go6vWqejy8pKC4_B8dgW-109">
          <mxGeometry y="200" width="645.170731707317" height="60" as="geometry" />
        </mxCell>
        <mxCell id="Bw-sxPb2Esf4PSg_OQSB-52" value="&lt;span style=&quot;text-align: center&quot;&gt;Add the ability for the drill and harpoon slowing down the drone&lt;/span&gt;" style="shape=partialRectangle;html=1;whiteSpace=wrap;connectable=0;fillColor=none;top=0;left=0;bottom=0;right=0;overflow=hidden;" vertex="1" parent="Bw-sxPb2Esf4PSg_OQSB-51">
          <mxGeometry width="273" height="60" as="geometry">
            <mxRectangle width="273" height="60" as="alternateBounds" />
          </mxGeometry>
        </mxCell>
        <mxCell id="Bw-sxPb2Esf4PSg_OQSB-53" value="" style="shape=partialRectangle;html=1;whiteSpace=wrap;connectable=0;fillColor=none;top=0;left=0;bottom=0;right=0;overflow=hidden;" vertex="1" parent="Bw-sxPb2Esf4PSg_OQSB-51">
          <mxGeometry x="273" width="372" height="60" as="geometry">
            <mxRectangle width="372" height="60" as="alternateBounds" />
          </mxGeometry>
        </mxCell>
        <mxCell id="go6vWqejy8pKC4_B8dgW-152" style="shape=partialRectangle;html=1;whiteSpace=wrap;collapsible=0;dropTarget=0;pointerEvents=0;fillColor=none;top=0;left=0;bottom=0;right=0;points=[[0,0.5],[1,0.5]];portConstraint=eastwest;" parent="go6vWqejy8pKC4_B8dgW-109" vertex="1">
          <mxGeometry y="260" width="645.170731707317" height="50" as="geometry" />
        </mxCell>
        <mxCell id="go6vWqejy8pKC4_B8dgW-153" value="Have gears be taxed based on how&amp;nbsp; much the player is actually moving with the engine" style="shape=partialRectangle;html=1;whiteSpace=wrap;connectable=0;fillColor=none;top=0;left=0;bottom=0;right=0;overflow=hidden;" parent="go6vWqejy8pKC4_B8dgW-152" vertex="1">
          <mxGeometry width="273" height="50" as="geometry">
            <mxRectangle width="273" height="50" as="alternateBounds" />
          </mxGeometry>
        </mxCell>
        <mxCell id="go6vWqejy8pKC4_B8dgW-154" value="" style="shape=partialRectangle;html=1;whiteSpace=wrap;connectable=0;fillColor=none;top=0;left=0;bottom=0;right=0;overflow=hidden;" parent="go6vWqejy8pKC4_B8dgW-152" vertex="1">
          <mxGeometry x="273" width="372" height="50" as="geometry">
            <mxRectangle width="372" height="50" as="alternateBounds" />
          </mxGeometry>
        </mxCell>
        <mxCell id="6U_FLFZ1m8M36dPALxO--58" style="shape=partialRectangle;html=1;whiteSpace=wrap;collapsible=0;dropTarget=0;pointerEvents=0;fillColor=none;top=0;left=0;bottom=0;right=0;points=[[0,0.5],[1,0.5]];portConstraint=eastwest;" parent="go6vWqejy8pKC4_B8dgW-109" vertex="1">
          <mxGeometry y="310" width="645.170731707317" height="40" as="geometry" />
        </mxCell>
        <mxCell id="6U_FLFZ1m8M36dPALxO--59" value="Simple tutorial pop up to make tutorialization easier for builds and features" style="shape=partialRectangle;html=1;whiteSpace=wrap;connectable=0;fillColor=none;top=0;left=0;bottom=0;right=0;overflow=hidden;" parent="6U_FLFZ1m8M36dPALxO--58" vertex="1">
          <mxGeometry width="273" height="40" as="geometry">
            <mxRectangle width="273" height="40" as="alternateBounds" />
          </mxGeometry>
        </mxCell>
        <mxCell id="6U_FLFZ1m8M36dPALxO--60" value="" style="shape=partialRectangle;html=1;whiteSpace=wrap;connectable=0;fillColor=none;top=0;left=0;bottom=0;right=0;overflow=hidden;" parent="6U_FLFZ1m8M36dPALxO--58" vertex="1">
          <mxGeometry x="273" width="372" height="40" as="geometry">
            <mxRectangle width="372" height="40" as="alternateBounds" />
          </mxGeometry>
        </mxCell>
        <mxCell id="go6vWqejy8pKC4_B8dgW-167" style="shape=partialRectangle;html=1;whiteSpace=wrap;collapsible=0;dropTarget=0;pointerEvents=0;fillColor=none;top=0;left=0;bottom=0;right=0;points=[[0,0.5],[1,0.5]];portConstraint=eastwest;" parent="go6vWqejy8pKC4_B8dgW-109" vertex="1">
          <mxGeometry y="350" width="645.170731707317" height="50" as="geometry" />
        </mxCell>
        <mxCell id="go6vWqejy8pKC4_B8dgW-168" value="Brainstorm and implement different variations of engine stalling" style="shape=partialRectangle;html=1;whiteSpace=wrap;connectable=0;fillColor=none;top=0;left=0;bottom=0;right=0;overflow=hidden;" parent="go6vWqejy8pKC4_B8dgW-167" vertex="1">
          <mxGeometry width="273" height="50" as="geometry">
            <mxRectangle width="273" height="50" as="alternateBounds" />
          </mxGeometry>
        </mxCell>
        <mxCell id="go6vWqejy8pKC4_B8dgW-169" value="" style="shape=partialRectangle;html=1;whiteSpace=wrap;connectable=0;fillColor=none;top=0;left=0;bottom=0;right=0;overflow=hidden;" parent="go6vWqejy8pKC4_B8dgW-167" vertex="1">
          <mxGeometry x="273" width="372" height="50" as="geometry">
            <mxRectangle width="372" height="50" as="alternateBounds" />
          </mxGeometry>
        </mxCell>
        <mxCell id="go6vWqejy8pKC4_B8dgW-149" style="shape=partialRectangle;html=1;whiteSpace=wrap;collapsible=0;dropTarget=0;pointerEvents=0;fillColor=none;top=0;left=0;bottom=0;right=0;points=[[0,0.5],[1,0.5]];portConstraint=eastwest;" parent="go6vWqejy8pKC4_B8dgW-109" vertex="1">
          <mxGeometry y="400" width="645.170731707317" height="60" as="geometry" />
        </mxCell>
        <mxCell id="go6vWqejy8pKC4_B8dgW-150" value="Screen-shake on engine over heat, add bubbles ejecting when the temp gets &quot;too high&quot;" style="shape=partialRectangle;html=1;whiteSpace=wrap;connectable=0;fillColor=none;top=0;left=0;bottom=0;right=0;overflow=hidden;" parent="go6vWqejy8pKC4_B8dgW-149" vertex="1">
          <mxGeometry width="273" height="60" as="geometry">
            <mxRectangle width="273" height="60" as="alternateBounds" />
          </mxGeometry>
        </mxCell>
        <mxCell id="go6vWqejy8pKC4_B8dgW-151" value="" style="shape=partialRectangle;html=1;whiteSpace=wrap;connectable=0;fillColor=none;top=0;left=0;bottom=0;right=0;overflow=hidden;" parent="go6vWqejy8pKC4_B8dgW-149" vertex="1">
          <mxGeometry x="273" width="372" height="60" as="geometry">
            <mxRectangle width="372" height="60" as="alternateBounds" />
          </mxGeometry>
        </mxCell>
        <mxCell id="go6vWqejy8pKC4_B8dgW-146" style="shape=partialRectangle;html=1;whiteSpace=wrap;collapsible=0;dropTarget=0;pointerEvents=0;fillColor=none;top=0;left=0;bottom=0;right=0;points=[[0,0.5],[1,0.5]];portConstraint=eastwest;" parent="go6vWqejy8pKC4_B8dgW-109" vertex="1">
          <mxGeometry y="460" width="645.170731707317" height="33" as="geometry" />
        </mxCell>
        <mxCell id="go6vWqejy8pKC4_B8dgW-147" value="Design Vars for different ways of failures for the stalling, such as reverting to a lower gear" style="shape=partialRectangle;html=1;whiteSpace=wrap;connectable=0;fillColor=none;top=0;left=0;bottom=0;right=0;overflow=hidden;" parent="go6vWqejy8pKC4_B8dgW-146" vertex="1">
          <mxGeometry width="273" height="33" as="geometry">
            <mxRectangle width="273" height="33" as="alternateBounds" />
          </mxGeometry>
        </mxCell>
        <mxCell id="go6vWqejy8pKC4_B8dgW-148" value="" style="shape=partialRectangle;html=1;whiteSpace=wrap;connectable=0;fillColor=none;top=0;left=0;bottom=0;right=0;overflow=hidden;" parent="go6vWqejy8pKC4_B8dgW-146" vertex="1">
          <mxGeometry x="273" width="372" height="33" as="geometry">
            <mxRectangle width="372" height="33" as="alternateBounds" />
          </mxGeometry>
        </mxCell>
        <mxCell id="go6vWqejy8pKC4_B8dgW-158" style="shape=partialRectangle;html=1;whiteSpace=wrap;collapsible=0;dropTarget=0;pointerEvents=0;fillColor=none;top=0;left=0;bottom=0;right=0;points=[[0,0.5],[1,0.5]];portConstraint=eastwest;" parent="go6vWqejy8pKC4_B8dgW-109" vertex="1">
          <mxGeometry y="493" width="645.170731707317" height="32" as="geometry" />
        </mxCell>
        <mxCell id="go6vWqejy8pKC4_B8dgW-159" value="1-1 " style="shape=partialRectangle;html=1;whiteSpace=wrap;connectable=0;fillColor=none;top=0;left=0;bottom=0;right=0;overflow=hidden;" parent="go6vWqejy8pKC4_B8dgW-158" vertex="1">
          <mxGeometry width="273" height="32" as="geometry">
            <mxRectangle width="273" height="32" as="alternateBounds" />
          </mxGeometry>
        </mxCell>
        <mxCell id="go6vWqejy8pKC4_B8dgW-160" value="" style="shape=partialRectangle;html=1;whiteSpace=wrap;connectable=0;fillColor=none;top=0;left=0;bottom=0;right=0;overflow=hidden;" parent="go6vWqejy8pKC4_B8dgW-158" vertex="1">
          <mxGeometry x="273" width="372" height="32" as="geometry">
            <mxRectangle width="372" height="32" as="alternateBounds" />
          </mxGeometry>
        </mxCell>
        <mxCell id="6U_FLFZ1m8M36dPALxO--18" style="shape=partialRectangle;html=1;whiteSpace=wrap;collapsible=0;dropTarget=0;pointerEvents=0;fillColor=none;top=0;left=0;bottom=0;right=0;points=[[0,0.5],[1,0.5]];portConstraint=eastwest;" parent="go6vWqejy8pKC4_B8dgW-109" vertex="1">
          <mxGeometry y="525" width="645.170731707317" height="32" as="geometry" />
        </mxCell>
        <mxCell id="6U_FLFZ1m8M36dPALxO--19" value="" style="shape=partialRectangle;html=1;whiteSpace=wrap;connectable=0;fillColor=none;top=0;left=0;bottom=0;right=0;overflow=hidden;" parent="6U_FLFZ1m8M36dPALxO--18" vertex="1">
          <mxGeometry width="273" height="32" as="geometry">
            <mxRectangle width="273" height="32" as="alternateBounds" />
          </mxGeometry>
        </mxCell>
        <mxCell id="6U_FLFZ1m8M36dPALxO--20" value="" style="shape=partialRectangle;html=1;whiteSpace=wrap;connectable=0;fillColor=none;top=0;left=0;bottom=0;right=0;overflow=hidden;" parent="6U_FLFZ1m8M36dPALxO--18" vertex="1">
          <mxGeometry x="273" width="372" height="32" as="geometry">
            <mxRectangle width="372" height="32" as="alternateBounds" />
          </mxGeometry>
        </mxCell>
        <mxCell id="go6vWqejy8pKC4_B8dgW-170" style="shape=partialRectangle;html=1;whiteSpace=wrap;collapsible=0;dropTarget=0;pointerEvents=0;fillColor=none;top=0;left=0;bottom=0;right=0;points=[[0,0.5],[1,0.5]];portConstraint=eastwest;" parent="go6vWqejy8pKC4_B8dgW-109" vertex="1">
          <mxGeometry y="557" width="645.170731707317" height="36" as="geometry" />
        </mxCell>
        <mxCell id="go6vWqejy8pKC4_B8dgW-171" value="" style="shape=partialRectangle;html=1;whiteSpace=wrap;connectable=0;fillColor=none;top=0;left=0;bottom=0;right=0;overflow=hidden;" parent="go6vWqejy8pKC4_B8dgW-170" vertex="1">
          <mxGeometry width="273" height="36" as="geometry">
            <mxRectangle width="273" height="36" as="alternateBounds" />
          </mxGeometry>
        </mxCell>
        <mxCell id="go6vWqejy8pKC4_B8dgW-172" value="" style="shape=partialRectangle;html=1;whiteSpace=wrap;connectable=0;fillColor=none;top=0;left=0;bottom=0;right=0;overflow=hidden;" parent="go6vWqejy8pKC4_B8dgW-170" vertex="1">
          <mxGeometry x="273" width="372" height="36" as="geometry">
            <mxRectangle width="372" height="36" as="alternateBounds" />
          </mxGeometry>
        </mxCell>
        <mxCell id="go6vWqejy8pKC4_B8dgW-173" style="shape=partialRectangle;html=1;whiteSpace=wrap;collapsible=0;dropTarget=0;pointerEvents=0;fillColor=none;top=0;left=0;bottom=0;right=0;points=[[0,0.5],[1,0.5]];portConstraint=eastwest;" parent="go6vWqejy8pKC4_B8dgW-109" vertex="1">
          <mxGeometry y="593" width="645.170731707317" height="37" as="geometry" />
        </mxCell>
        <mxCell id="go6vWqejy8pKC4_B8dgW-174" value="" style="shape=partialRectangle;html=1;whiteSpace=wrap;connectable=0;fillColor=none;top=0;left=0;bottom=0;right=0;overflow=hidden;" parent="go6vWqejy8pKC4_B8dgW-173" vertex="1">
          <mxGeometry width="273" height="37" as="geometry">
            <mxRectangle width="273" height="37" as="alternateBounds" />
          </mxGeometry>
        </mxCell>
        <mxCell id="go6vWqejy8pKC4_B8dgW-175" value="" style="shape=partialRectangle;html=1;whiteSpace=wrap;connectable=0;fillColor=none;top=0;left=0;bottom=0;right=0;overflow=hidden;" parent="go6vWqejy8pKC4_B8dgW-173" vertex="1">
          <mxGeometry x="273" width="372" height="37" as="geometry">
            <mxRectangle width="372" height="37" as="alternateBounds" />
          </mxGeometry>
        </mxCell>
        <mxCell id="go6vWqejy8pKC4_B8dgW-176" style="shape=partialRectangle;html=1;whiteSpace=wrap;collapsible=0;dropTarget=0;pointerEvents=0;fillColor=none;top=0;left=0;bottom=0;right=0;points=[[0,0.5],[1,0.5]];portConstraint=eastwest;" parent="go6vWqejy8pKC4_B8dgW-109" vertex="1">
          <mxGeometry y="630" width="645.170731707317" height="58" as="geometry" />
        </mxCell>
        <mxCell id="go6vWqejy8pKC4_B8dgW-177" value="" style="shape=partialRectangle;html=1;whiteSpace=wrap;connectable=0;fillColor=none;top=0;left=0;bottom=0;right=0;overflow=hidden;" parent="go6vWqejy8pKC4_B8dgW-176" vertex="1">
          <mxGeometry width="273" height="58" as="geometry">
            <mxRectangle width="273" height="58" as="alternateBounds" />
          </mxGeometry>
        </mxCell>
        <mxCell id="go6vWqejy8pKC4_B8dgW-178" value="" style="shape=partialRectangle;html=1;whiteSpace=wrap;connectable=0;fillColor=none;top=0;left=0;bottom=0;right=0;overflow=hidden;" parent="go6vWqejy8pKC4_B8dgW-176" vertex="1">
          <mxGeometry x="273" width="372" height="58" as="geometry">
            <mxRectangle width="372" height="58" as="alternateBounds" />
          </mxGeometry>
        </mxCell>
        <mxCell id="go6vWqejy8pKC4_B8dgW-188" style="shape=partialRectangle;html=1;whiteSpace=wrap;collapsible=0;dropTarget=0;pointerEvents=0;fillColor=none;top=0;left=0;bottom=0;right=0;points=[[0,0.5],[1,0.5]];portConstraint=eastwest;" parent="go6vWqejy8pKC4_B8dgW-109" vertex="1">
          <mxGeometry y="688" width="645.170731707317" height="35" as="geometry" />
        </mxCell>
        <mxCell id="go6vWqejy8pKC4_B8dgW-189" value="" style="shape=partialRectangle;html=1;whiteSpace=wrap;connectable=0;fillColor=none;top=0;left=0;bottom=0;right=0;overflow=hidden;" parent="go6vWqejy8pKC4_B8dgW-188" vertex="1">
          <mxGeometry width="273" height="35" as="geometry">
            <mxRectangle width="273" height="35" as="alternateBounds" />
          </mxGeometry>
        </mxCell>
        <mxCell id="go6vWqejy8pKC4_B8dgW-190" value="" style="shape=partialRectangle;html=1;whiteSpace=wrap;connectable=0;fillColor=none;top=0;left=0;bottom=0;right=0;overflow=hidden;" parent="go6vWqejy8pKC4_B8dgW-188" vertex="1">
          <mxGeometry x="273" width="372" height="35" as="geometry">
            <mxRectangle width="372" height="35" as="alternateBounds" />
          </mxGeometry>
        </mxCell>
        <mxCell id="Bw-sxPb2Esf4PSg_OQSB-5" value="&lt;h1&gt;Internal Schema&lt;br&gt;&lt;/h1&gt;&lt;p&gt;Programmer-Translated goals, unsorted&lt;br&gt;&lt;/p&gt;" style="text;html=1;strokeColor=none;fillColor=none;spacing=5;spacingTop=-20;whiteSpace=wrap;overflow=hidden;rounded=0;" vertex="1" parent="go6vWqejy8pKC4_B8dgW-104">
          <mxGeometry x="16.585365853658537" y="10" width="306.8292682926829" height="120" as="geometry" />
        </mxCell>
        <mxCell id="hxR5QbofLgMlqyNFFXLC-1" value="&lt;div&gt;&lt;span&gt;&lt;font style=&quot;font-size: 20px&quot;&gt;Requirements:&lt;/font&gt;&lt;/span&gt;&lt;/div&gt;&lt;ul&gt;&lt;li&gt;Hot Fish AI&lt;/li&gt;&lt;li&gt;Harpoon Bug&lt;/li&gt;&lt;li&gt;Clean Up the UI&lt;/li&gt;&lt;li&gt;Different Engine Stall Variations&lt;/li&gt;&lt;li&gt;Gradient temp emitter&lt;/li&gt;&lt;li&gt;Engine Cost Diff&lt;/li&gt;&lt;li&gt;Jrpg tutorial popup&lt;/li&gt;&lt;/ul&gt;" style="whiteSpace=wrap;html=1;fillColor=#f8cecc;strokeColor=#b85450;" parent="1" vertex="1">
          <mxGeometry x="310" y="10" width="340" height="230" as="geometry" />
        </mxCell>
        <mxCell id="hxR5QbofLgMlqyNFFXLC-5" value="&lt;div&gt;&lt;span&gt;&lt;font style=&quot;font-size: 20px&quot;&gt;Items Left To Plan:&lt;/font&gt;&lt;/span&gt;&lt;/div&gt;&lt;ul&gt;&lt;li&gt;&lt;strike&gt;allow users to post short messages&lt;/strike&gt;&lt;/li&gt;&lt;li&gt;&lt;strike&gt;follow/unfollow other users&lt;/strike&gt;&lt;/li&gt;&lt;li&gt;&lt;strike&gt;see a user’s timeline (in chronological order - a combination of tweets/retweets of all users that one follows)&lt;/strike&gt;&lt;/li&gt;&lt;li&gt;&lt;strike&gt;retweet&lt;/strike&gt;&lt;/li&gt;&lt;/ul&gt;" style="whiteSpace=wrap;html=1;fillColor=#dae8fc;strokeColor=#6c8ebf;" parent="1" vertex="1">
          <mxGeometry x="310" y="260" width="340" height="230" as="geometry" />
        </mxCell>
        <mxCell id="go6vWqejy8pKC4_B8dgW-16" value="" style="group" parent="1" vertex="1" connectable="0">
          <mxGeometry x="-330" width="630" height="1320" as="geometry" />
        </mxCell>
        <mxCell id="go6vWqejy8pKC4_B8dgW-14" value="" style="rounded=0;whiteSpace=wrap;html=1;" parent="go6vWqejy8pKC4_B8dgW-16" vertex="1">
          <mxGeometry width="630" height="1320" as="geometry" />
        </mxCell>
        <mxCell id="go6vWqejy8pKC4_B8dgW-15" value="&lt;h1&gt;External Schema&lt;/h1&gt;&lt;div&gt;Customer end goals&lt;/div&gt;&lt;div&gt;&lt;br&gt;&lt;/div&gt;&lt;div&gt;&lt;br&gt;&lt;/div&gt;&lt;div&gt;&lt;div&gt;1 - Design Doc&lt;br&gt;&lt;/div&gt;&lt;/div&gt;&lt;div&gt;&lt;ol&gt;&lt;li&gt;&amp;nbsp;the player understands when and why damage is being dealt or received through use of visual and auditory feedback.&lt;br&gt;&lt;/li&gt;&lt;li&gt;The drone must be in range of a Signal Beacon to operate. When the player is leaving the range of the closest signal beacon, their camera feed will get more and more fuzzy until the connection to the drone has been lost (the same as if the drone were destroyed). The player will then have to request a new drone (see Respawning.)&lt;/li&gt;&lt;li&gt;Signal beacons have levels of safety. Signal Beacons have levels of safety. If there is an encounter near the beacon that has not been completed the beacon is Unsafe. Once the encounter is completed by the player the beacon is Safe.&amp;nbsp;Signal Beacons have a light on top of them, it flashes yellow while unsafe, and green while safe.&lt;/li&gt;&lt;li&gt;Drones can be spawned at safe Signal Beacons. When the player’s drone is destroyed, they can request that their new drone be deployed at the most recently placed beacon that is in the Safe state.&lt;/li&gt;&lt;li&gt;The ability for a level designer to signify that an encounter exists in an area, and whether it has been resolved or not. Implementation pattern is at the discretion of the programmer. (I trust your judgment &amp;lt;3.)&lt;/li&gt;&lt;li&gt;is for the player to pull any creatures towards the drone.&lt;br&gt;&lt;/li&gt;&lt;li&gt;The temperature of an object can be masked by Ambient Temperature. Say a creature that can detect heat is chasing the player’s drone and the player moves next to an incredibly hot heat vent. Because the creature’s detection is based on heat, they will not be able to detect the player drone because a higher ambient temperature is masking the drone’s temperature. (float for diff between current temp and ambient temp)&lt;br&gt;&lt;/li&gt;&lt;li&gt;When a sound is created, it’s effect dissipates out in a radius lowering in decibels until it reaches zero.&lt;/li&gt;&lt;li&gt;Creatures can perceive and react to sounds&lt;br&gt;&lt;/li&gt;&lt;li&gt;The player’s map is a representation of where their drone has explored. As they place more Signal Beacons, more of the map will be visible. The player can bring up the map to look at it at any time. The map is represented by a simplified 3D model of the game’s world. Signal beacons that have been deployed will be represented on the map as glowing dots. See the (very rudimentary) mockup of the map screen below. The player can select safe Signal Beacons to Auto Pilot their drone to (see Signal Beacon Rules.)&lt;/li&gt;&lt;li&gt;Create instantaneous sources of sound (eg. the drone being hit) at varying volumes and ranges.&lt;/li&gt;&lt;li&gt;Create continuous sources of sound (eg. the drone’s engine running) at varying volumes and ranges.&lt;/li&gt;&lt;li&gt;Adjust the AI of creatures to react to sounds in the environment.&lt;/li&gt;&lt;li&gt;When a bright source of Light is present the coral will quickly curve away it’s flagella and stop blocking whatever it has control of and release a flurry of bubbles from it’s base.&lt;br&gt;&lt;/li&gt;&lt;/ol&gt;&lt;div&gt;&lt;br&gt;&lt;/div&gt;&lt;div&gt;2 - Gathered From Direct Designer Interaction&lt;/div&gt;&lt;div&gt;&lt;ol&gt;&lt;li&gt;&lt;br&gt;&lt;/li&gt;&lt;/ol&gt;&lt;/div&gt;&lt;/div&gt;&lt;p&gt;&lt;/p&gt;" style="text;html=1;strokeColor=none;fillColor=none;spacing=5;spacingTop=-20;whiteSpace=wrap;overflow=hidden;rounded=0;" parent="go6vWqejy8pKC4_B8dgW-16" vertex="1">
          <mxGeometry x="20" y="35.22" width="589.77" height="1264.78" as="geometry" />
        </mxCell>
        <mxCell id="xhr826M39EY4KeseyqCB-3" value="" style="group" parent="1" vertex="1" connectable="0">
          <mxGeometry x="670" y="10" width="1300" height="670" as="geometry" />
        </mxCell>
        <mxCell id="1ae0I56IuYL9EDaaSJPz-2" value="" style="rounded=0;whiteSpace=wrap;html=1;" parent="xhr826M39EY4KeseyqCB-3" vertex="1">
          <mxGeometry width="1300" height="670" as="geometry" />
        </mxCell>
        <mxCell id="1ae0I56IuYL9EDaaSJPz-1" value="&lt;font size=&quot;1&quot;&gt;&lt;u&gt;&lt;b style=&quot;font-size: 70px&quot;&gt;E(ntity) R(relationship) D(iagram)&lt;/b&gt;&lt;/u&gt;&lt;/font&gt;" style="text;html=1;strokeColor=none;fillColor=none;align=left;verticalAlign=middle;whiteSpace=wrap;rounded=0;" parent="xhr826M39EY4KeseyqCB-3" vertex="1">
          <mxGeometry x="23.493975903614455" width="1276.5060240963855" height="110" as="geometry" />
        </mxCell>
      </root>
    </mxGraphModel>
  </diagram>
</mxfile>
